<mxfile host="app.diagrams.net" agent="Mozilla/5.0 (Windows NT 10.0; Win64; x64) AppleWebKit/537.36 (KHTML, like Gecko) Chrome/126.0.0.0 Safari/537.36 Edg/126.0.0.0" version="24.7.16">
  <diagram name="Page-1" id="6c0HQY4s9SZfrK142lB3">
    <mxGraphModel dx="1303" dy="711" grid="1" gridSize="10" guides="1" tooltips="1" connect="1" arrows="1" fold="1" page="1" pageScale="1" pageWidth="1654" pageHeight="1169" math="0" shadow="0">
      <root>
        <mxCell id="0" />
        <mxCell id="1" parent="0" />
        <mxCell id="roiIZhrQq80DmrZxKU7G-34" style="edgeStyle=orthogonalEdgeStyle;rounded=0;orthogonalLoop=1;jettySize=auto;html=1;exitX=0.4090909090909091;exitY=1;exitDx=10;exitDy=0;exitPerimeter=0;fillColor=#ffe6cc;strokeColor=#d79b00;strokeWidth=2;endArrow=none;endFill=0;" edge="1" parent="1" source="roiIZhrQq80DmrZxKU7G-1">
          <mxGeometry relative="1" as="geometry">
            <mxPoint x="925.304347826087" y="690" as="targetPoint" />
          </mxGeometry>
        </mxCell>
        <mxCell id="roiIZhrQq80DmrZxKU7G-35" value="&lt;font style=&quot;font-size: 14px;&quot;&gt;Aluout[1]&lt;/font&gt;" style="edgeLabel;html=1;align=center;verticalAlign=middle;resizable=0;points=[];" vertex="1" connectable="0" parent="roiIZhrQq80DmrZxKU7G-34">
          <mxGeometry x="0.8097" y="-2" relative="1" as="geometry">
            <mxPoint x="-453" y="81" as="offset" />
          </mxGeometry>
        </mxCell>
        <mxCell id="roiIZhrQq80DmrZxKU7G-41" style="edgeStyle=orthogonalEdgeStyle;rounded=0;orthogonalLoop=1;jettySize=auto;html=1;exitX=1;exitY=0.5;exitDx=0;exitDy=-5;exitPerimeter=0;strokeWidth=3;" edge="1" parent="1" source="roiIZhrQq80DmrZxKU7G-1">
          <mxGeometry relative="1" as="geometry">
            <mxPoint x="1120" y="410.25" as="targetPoint" />
          </mxGeometry>
        </mxCell>
        <mxCell id="roiIZhrQq80DmrZxKU7G-1" value="Mux" style="shadow=0;dashed=0;align=center;html=1;strokeWidth=1;shape=mxgraph.electrical.abstract.mux2;whiteSpace=wrap;fillColor=#dae8fc;strokeColor=#6c8ebf;" vertex="1" parent="1">
          <mxGeometry x="870" y="250" width="110" height="330" as="geometry" />
        </mxCell>
        <mxCell id="roiIZhrQq80DmrZxKU7G-24" style="edgeStyle=orthogonalEdgeStyle;rounded=0;orthogonalLoop=1;jettySize=auto;html=1;exitX=0.4;exitY=1;exitDx=10;exitDy=0;exitPerimeter=0;endArrow=none;endFill=0;fillColor=#ffe6cc;strokeColor=#d79b00;strokeWidth=2;" edge="1" parent="1" source="roiIZhrQq80DmrZxKU7G-3">
          <mxGeometry relative="1" as="geometry">
            <mxPoint x="670.4705882352941" y="729.9999999999998" as="targetPoint" />
            <Array as="points">
              <mxPoint x="670" y="645" />
              <mxPoint x="671" y="645" />
            </Array>
          </mxGeometry>
        </mxCell>
        <mxCell id="roiIZhrQq80DmrZxKU7G-3" value="Mux" style="shadow=0;dashed=0;align=center;html=1;strokeWidth=1;shape=mxgraph.electrical.abstract.mux2;whiteSpace=wrap;fillColor=#dae8fc;strokeColor=#6c8ebf;" vertex="1" parent="1">
          <mxGeometry x="620" y="430" width="100" height="130" as="geometry" />
        </mxCell>
        <mxCell id="roiIZhrQq80DmrZxKU7G-4" style="edgeStyle=orthogonalEdgeStyle;rounded=0;orthogonalLoop=1;jettySize=auto;html=1;exitX=1;exitY=0.5;exitDx=0;exitDy=-5;exitPerimeter=0;" edge="1" parent="1" source="roiIZhrQq80DmrZxKU7G-3">
          <mxGeometry relative="1" as="geometry">
            <mxPoint x="870" y="490" as="targetPoint" />
            <Array as="points">
              <mxPoint x="870" y="490" />
            </Array>
          </mxGeometry>
        </mxCell>
        <mxCell id="roiIZhrQq80DmrZxKU7G-10" style="edgeStyle=orthogonalEdgeStyle;rounded=0;orthogonalLoop=1;jettySize=auto;html=1;exitX=0;exitY=0.21923076923076923;exitDx=0;exitDy=3;exitPerimeter=0;" edge="1" parent="1" source="roiIZhrQq80DmrZxKU7G-5">
          <mxGeometry relative="1" as="geometry">
            <mxPoint x="360" y="432" as="targetPoint" />
          </mxGeometry>
        </mxCell>
        <mxCell id="roiIZhrQq80DmrZxKU7G-11" style="edgeStyle=orthogonalEdgeStyle;rounded=0;orthogonalLoop=1;jettySize=auto;html=1;exitX=0;exitY=0.6576923076923077;exitDx=0;exitDy=3;exitPerimeter=0;" edge="1" parent="1" source="roiIZhrQq80DmrZxKU7G-5">
          <mxGeometry relative="1" as="geometry">
            <mxPoint x="360" y="489" as="targetPoint" />
          </mxGeometry>
        </mxCell>
        <mxCell id="roiIZhrQq80DmrZxKU7G-23" style="edgeStyle=orthogonalEdgeStyle;rounded=0;orthogonalLoop=1;jettySize=auto;html=1;exitX=0.3888888888888889;exitY=1;exitDx=10;exitDy=0;exitPerimeter=0;fillColor=#ffe6cc;strokeColor=#d79b00;strokeWidth=2;" edge="1" parent="1" source="roiIZhrQq80DmrZxKU7G-5">
          <mxGeometry relative="1" as="geometry">
            <mxPoint x="464.5882352941178" y="709.9999999999998" as="targetPoint" />
          </mxGeometry>
        </mxCell>
        <mxCell id="roiIZhrQq80DmrZxKU7G-5" value="Mux" style="shadow=0;dashed=0;align=center;html=1;strokeWidth=1;shape=mxgraph.electrical.abstract.mux2;whiteSpace=wrap;fillColor=#dae8fc;strokeColor=#6c8ebf;" vertex="1" parent="1">
          <mxGeometry x="420" y="400" width="90" height="130" as="geometry" />
        </mxCell>
        <mxCell id="roiIZhrQq80DmrZxKU7G-12" style="edgeStyle=orthogonalEdgeStyle;rounded=0;orthogonalLoop=1;jettySize=auto;html=1;exitX=0;exitY=0.21923076923076923;exitDx=0;exitDy=3;exitPerimeter=0;" edge="1" parent="1" source="roiIZhrQq80DmrZxKU7G-6">
          <mxGeometry relative="1" as="geometry">
            <mxPoint x="360" y="592" as="targetPoint" />
          </mxGeometry>
        </mxCell>
        <mxCell id="roiIZhrQq80DmrZxKU7G-22" style="edgeStyle=orthogonalEdgeStyle;rounded=0;orthogonalLoop=1;jettySize=auto;html=1;exitX=0.3888888888888889;exitY=1;exitDx=10;exitDy=0;exitPerimeter=0;endArrow=none;endFill=0;fillColor=#ffe6cc;strokeColor=#d79b00;strokeWidth=2;" edge="1" parent="1">
          <mxGeometry relative="1" as="geometry">
            <mxPoint x="464.5882352941178" y="759.9999999999998" as="targetPoint" />
            <mxPoint x="465" y="640" as="sourcePoint" />
          </mxGeometry>
        </mxCell>
        <mxCell id="roiIZhrQq80DmrZxKU7G-6" value="Mux" style="shadow=0;dashed=0;align=center;html=1;strokeWidth=1;shape=mxgraph.electrical.abstract.mux2;whiteSpace=wrap;fillColor=#dae8fc;strokeColor=#6c8ebf;" vertex="1" parent="1">
          <mxGeometry x="420" y="560" width="90" height="130" as="geometry" />
        </mxCell>
        <mxCell id="roiIZhrQq80DmrZxKU7G-8" style="edgeStyle=orthogonalEdgeStyle;rounded=0;orthogonalLoop=1;jettySize=auto;html=1;exitX=0;exitY=0.6576923076923077;exitDx=0;exitDy=3;exitPerimeter=0;entryX=1;entryY=0.5;entryDx=0;entryDy=-5;entryPerimeter=0;" edge="1" parent="1" source="roiIZhrQq80DmrZxKU7G-3" target="roiIZhrQq80DmrZxKU7G-6">
          <mxGeometry relative="1" as="geometry" />
        </mxCell>
        <mxCell id="roiIZhrQq80DmrZxKU7G-9" style="edgeStyle=orthogonalEdgeStyle;rounded=0;orthogonalLoop=1;jettySize=auto;html=1;exitX=0;exitY=0.21923076923076923;exitDx=0;exitDy=3;exitPerimeter=0;entryX=1;entryY=0.5;entryDx=0;entryDy=-5;entryPerimeter=0;" edge="1" parent="1" source="roiIZhrQq80DmrZxKU7G-3" target="roiIZhrQq80DmrZxKU7G-5">
          <mxGeometry relative="1" as="geometry" />
        </mxCell>
        <mxCell id="roiIZhrQq80DmrZxKU7G-18" style="edgeStyle=orthogonalEdgeStyle;rounded=0;orthogonalLoop=1;jettySize=auto;html=1;exitX=0;exitY=0.21923076923076923;exitDx=0;exitDy=3;exitPerimeter=0;" edge="1" parent="1" source="roiIZhrQq80DmrZxKU7G-14">
          <mxGeometry relative="1" as="geometry">
            <mxPoint x="360" y="150" as="targetPoint" />
            <Array as="points">
              <mxPoint x="700" y="150" />
              <mxPoint x="470" y="150" />
            </Array>
          </mxGeometry>
        </mxCell>
        <mxCell id="roiIZhrQq80DmrZxKU7G-26" style="edgeStyle=orthogonalEdgeStyle;rounded=0;orthogonalLoop=1;jettySize=auto;html=1;exitX=0.3888888888888889;exitY=1;exitDx=10;exitDy=0;exitPerimeter=0;endArrow=none;endFill=0;strokeWidth=2;fillColor=#ffe6cc;strokeColor=#d79b00;" edge="1" parent="1" source="roiIZhrQq80DmrZxKU7G-14">
          <mxGeometry relative="1" as="geometry">
            <mxPoint x="745.0851063829787" y="430" as="targetPoint" />
          </mxGeometry>
        </mxCell>
        <mxCell id="roiIZhrQq80DmrZxKU7G-14" value="Mux" style="shadow=0;dashed=0;align=center;html=1;strokeWidth=1;shape=mxgraph.electrical.abstract.mux2;whiteSpace=wrap;fillColor=#dae8fc;strokeColor=#6c8ebf;" vertex="1" parent="1">
          <mxGeometry x="700" y="270" width="90" height="130" as="geometry" />
        </mxCell>
        <mxCell id="roiIZhrQq80DmrZxKU7G-15" style="edgeStyle=orthogonalEdgeStyle;rounded=0;orthogonalLoop=1;jettySize=auto;html=1;exitX=1;exitY=0.5;exitDx=0;exitDy=-5;exitPerimeter=0;" edge="1" parent="1" source="roiIZhrQq80DmrZxKU7G-14">
          <mxGeometry relative="1" as="geometry">
            <mxPoint x="870" y="330" as="targetPoint" />
            <Array as="points">
              <mxPoint x="870" y="330" />
            </Array>
          </mxGeometry>
        </mxCell>
        <mxCell id="roiIZhrQq80DmrZxKU7G-20" style="edgeStyle=orthogonalEdgeStyle;rounded=0;orthogonalLoop=1;jettySize=auto;html=1;exitX=0;exitY=0.21666666666666667;exitDx=0;exitDy=3;exitPerimeter=0;" edge="1" parent="1" source="roiIZhrQq80DmrZxKU7G-16">
          <mxGeometry relative="1" as="geometry">
            <mxPoint x="360" y="269.2" as="targetPoint" />
          </mxGeometry>
        </mxCell>
        <mxCell id="roiIZhrQq80DmrZxKU7G-21" style="edgeStyle=orthogonalEdgeStyle;rounded=0;orthogonalLoop=1;jettySize=auto;html=1;exitX=0;exitY=0.65;exitDx=0;exitDy=3;exitPerimeter=0;" edge="1" parent="1" source="roiIZhrQq80DmrZxKU7G-16">
          <mxGeometry relative="1" as="geometry">
            <mxPoint x="360" y="321.20000000000005" as="targetPoint" />
          </mxGeometry>
        </mxCell>
        <mxCell id="roiIZhrQq80DmrZxKU7G-25" style="edgeStyle=orthogonalEdgeStyle;rounded=0;orthogonalLoop=1;jettySize=auto;html=1;exitX=0.375;exitY=1;exitDx=10;exitDy=0;exitPerimeter=0;endArrow=none;endFill=0;strokeWidth=2;fillColor=#ffe6cc;strokeColor=#d79b00;" edge="1" parent="1" source="roiIZhrQq80DmrZxKU7G-16">
          <mxGeometry relative="1" as="geometry">
            <mxPoint x="464.9767441860465" y="380" as="targetPoint" />
          </mxGeometry>
        </mxCell>
        <mxCell id="roiIZhrQq80DmrZxKU7G-16" value="Mux" style="shadow=0;dashed=0;align=center;html=1;strokeWidth=1;shape=mxgraph.electrical.abstract.mux2;whiteSpace=wrap;fillColor=#dae8fc;strokeColor=#6c8ebf;" vertex="1" parent="1">
          <mxGeometry x="425" y="240" width="80" height="120" as="geometry" />
        </mxCell>
        <mxCell id="roiIZhrQq80DmrZxKU7G-17" style="edgeStyle=orthogonalEdgeStyle;rounded=0;orthogonalLoop=1;jettySize=auto;html=1;exitX=1;exitY=0.5;exitDx=0;exitDy=-5;exitPerimeter=0;entryX=0;entryY=0.6576923076923077;entryDx=0;entryDy=3;entryPerimeter=0;" edge="1" parent="1" source="roiIZhrQq80DmrZxKU7G-16" target="roiIZhrQq80DmrZxKU7G-14">
          <mxGeometry relative="1" as="geometry" />
        </mxCell>
        <mxCell id="roiIZhrQq80DmrZxKU7G-19" value="" style="endArrow=classic;html=1;rounded=0;exitX=0.014;exitY=0.679;exitDx=0;exitDy=0;exitPerimeter=0;" edge="1" parent="1" source="roiIZhrQq80DmrZxKU7G-6">
          <mxGeometry width="50" height="50" relative="1" as="geometry">
            <mxPoint x="340" y="670" as="sourcePoint" />
            <mxPoint x="360" y="650" as="targetPoint" />
          </mxGeometry>
        </mxCell>
        <mxCell id="roiIZhrQq80DmrZxKU7G-27" value="&lt;font style=&quot;font-size: 17px;&quot;&gt;4&#39;b1111&lt;/font&gt;" style="text;html=1;align=center;verticalAlign=middle;resizable=0;points=[];autosize=1;strokeColor=none;fillColor=none;" vertex="1" parent="1">
          <mxGeometry x="290" y="140" width="80" height="30" as="geometry" />
        </mxCell>
        <mxCell id="roiIZhrQq80DmrZxKU7G-28" value="&lt;font style=&quot;font-size: 17px;&quot;&gt;4&#39;b0011&lt;/font&gt;" style="text;html=1;align=center;verticalAlign=middle;resizable=0;points=[];autosize=1;strokeColor=none;fillColor=none;" vertex="1" parent="1">
          <mxGeometry x="280" y="250" width="80" height="30" as="geometry" />
        </mxCell>
        <mxCell id="roiIZhrQq80DmrZxKU7G-29" value="&lt;font style=&quot;font-size: 17px;&quot;&gt;4&#39;b1100&lt;/font&gt;" style="text;html=1;align=center;verticalAlign=middle;resizable=0;points=[];autosize=1;strokeColor=none;fillColor=none;" vertex="1" parent="1">
          <mxGeometry x="280" y="310" width="80" height="30" as="geometry" />
        </mxCell>
        <mxCell id="roiIZhrQq80DmrZxKU7G-30" value="&lt;font style=&quot;font-size: 17px;&quot;&gt;4&#39;b0001&lt;/font&gt;" style="text;html=1;align=center;verticalAlign=middle;resizable=0;points=[];autosize=1;strokeColor=none;fillColor=none;" vertex="1" parent="1">
          <mxGeometry x="280" y="420" width="80" height="30" as="geometry" />
        </mxCell>
        <mxCell id="roiIZhrQq80DmrZxKU7G-31" value="&lt;font style=&quot;font-size: 17px;&quot;&gt;4&#39;b0100&lt;/font&gt;" style="text;html=1;align=center;verticalAlign=middle;resizable=0;points=[];autosize=1;strokeColor=none;fillColor=none;" vertex="1" parent="1">
          <mxGeometry x="280" y="470" width="80" height="30" as="geometry" />
        </mxCell>
        <mxCell id="roiIZhrQq80DmrZxKU7G-32" value="&lt;font style=&quot;font-size: 17px;&quot;&gt;4&#39;b0010&lt;/font&gt;" style="text;html=1;align=center;verticalAlign=middle;resizable=0;points=[];autosize=1;strokeColor=none;fillColor=none;" vertex="1" parent="1">
          <mxGeometry x="280" y="580" width="80" height="30" as="geometry" />
        </mxCell>
        <mxCell id="roiIZhrQq80DmrZxKU7G-33" value="&lt;font style=&quot;font-size: 17px;&quot;&gt;4&#39;b1000&lt;/font&gt;" style="text;html=1;align=center;verticalAlign=middle;resizable=0;points=[];autosize=1;strokeColor=none;fillColor=none;" vertex="1" parent="1">
          <mxGeometry x="280" y="630" width="80" height="30" as="geometry" />
        </mxCell>
        <mxCell id="roiIZhrQq80DmrZxKU7G-36" value="&lt;font style=&quot;font-size: 14px;&quot;&gt;Aluout[0]&lt;/font&gt;" style="edgeLabel;html=1;align=center;verticalAlign=middle;resizable=0;points=[];" vertex="1" connectable="0" parent="1">
          <mxGeometry x="679.997567304827" y="729.9994606635195" as="geometry">
            <mxPoint x="-6" y="-2" as="offset" />
          </mxGeometry>
        </mxCell>
        <mxCell id="roiIZhrQq80DmrZxKU7G-37" value="&lt;font style=&quot;font-size: 14px;&quot;&gt;ByteAccess&lt;/font&gt;" style="edgeLabel;html=1;align=center;verticalAlign=middle;resizable=0;points=[];" vertex="1" connectable="0" parent="1">
          <mxGeometry x="943.4075673048271" y="699.1094606635195" as="geometry" />
        </mxCell>
        <mxCell id="roiIZhrQq80DmrZxKU7G-38" value="&lt;font style=&quot;font-size: 14px;&quot;&gt;Halfword&lt;/font&gt;" style="edgeLabel;html=1;align=center;verticalAlign=middle;resizable=0;points=[];" vertex="1" connectable="0" parent="1">
          <mxGeometry x="759.9975673048272" y="429.99946066351947" as="geometry">
            <mxPoint x="4" as="offset" />
          </mxGeometry>
        </mxCell>
        <mxCell id="roiIZhrQq80DmrZxKU7G-40" value="&lt;font style=&quot;font-size: 14px;&quot;&gt;Aluout[1]&lt;/font&gt;" style="edgeLabel;html=1;align=center;verticalAlign=middle;resizable=0;points=[];" vertex="1" connectable="0" parent="1">
          <mxGeometry x="479.99756730482704" y="379.99946066351947" as="geometry" />
        </mxCell>
        <mxCell id="roiIZhrQq80DmrZxKU7G-43" value="&lt;font style=&quot;font-size: 14px;&quot;&gt;MemMask[3:0]&lt;/font&gt;" style="edgeLabel;html=1;align=center;verticalAlign=middle;resizable=0;points=[];" vertex="1" connectable="0" parent="1">
          <mxGeometry x="1079.997567304827" y="379.99946066351947" as="geometry" />
        </mxCell>
      </root>
    </mxGraphModel>
  </diagram>
</mxfile>
